<svg xmlns="http://www.w3.org/2000/svg" xmlns:xlink="http://www.w3.org/1999/xlink" width="29.941" height="40.558" viewBox="0 0 29.941 40.558">
  <defs>
    <clipPath id="clip-path">
      <rect id="Rectangle_634" data-name="Rectangle 634" width="29.941" height="40.558" fill="#fff"/>
    </clipPath>
  </defs>
  <g id="Group_5103" data-name="Group 5103" clip-path="url(#clip-path)">
    <path id="Path_460" data-name="Path 460" d="M16.286,0c.533.106,1.075.178,1.6.324,1.038.292,2.086.568,3.089.954a12.7,12.7,0,0,1,3.468,2.1,15.128,15.128,0,0,1,2.722,2.906,14.718,14.718,0,0,1,2.763,8A15.086,15.086,0,0,1,27.78,22.59C26.8,24.307,25.69,25.95,24.6,27.6c-2.6,3.946-5.219,7.876-7.821,11.818a2.154,2.154,0,0,1-1.841,1.138A1.968,1.968,0,0,1,13.268,39.5Q9.736,34.177,6.206,28.85q-1.764-2.672-3.489-5.37A18.452,18.452,0,0,1,.274,17.42a11.982,11.982,0,0,1-.2-3.855,14.966,14.966,0,0,1,3-7.617A15.152,15.152,0,0,1,8.048,1.713,16.08,16.08,0,0,1,12.745.16c.308-.056.617-.107.926-.16ZM14.868,1.821a12.116,12.116,0,0,0-4.283.709A12.754,12.754,0,0,0,5.651,5.639,16.036,16.036,0,0,0,3.8,8.026,12.524,12.524,0,0,0,1.8,13.97a10.823,10.823,0,0,0,.212,3.111A16.351,16.351,0,0,0,4.244,22.6c1.307,2.08,2.673,4.122,4.026,6.172q3.2,4.848,6.416,9.684c.256.386.383.392.63.014.585-.893,1.159-1.794,1.747-2.685q3.959-5.989,7.921-11.976a18.012,18.012,0,0,0,2.451-4.762,17.733,17.733,0,0,0,.706-3.206,17.028,17.028,0,0,0-.134-2.925,9.82,9.82,0,0,0-.927-3.268,11.827,11.827,0,0,0-3.247-4.427A17.925,17.925,0,0,0,21.24,3.367a12.353,12.353,0,0,0-6.372-1.546" transform="translate(0)" fill="#fff"/>
    <path id="Path_461" data-name="Path 461" d="M51.293,59.95c.027-3.165.967-5.157,2.742-6.742a7.459,7.459,0,0,1,5.1-1.911,7.794,7.794,0,0,1,5.646,2.282,7.635,7.635,0,0,1,2.368,5.612,7.964,7.964,0,0,1-8.232,7.949c-4.028-.083-7.724-3.659-7.626-7.189m14.048-.756a6.145,6.145,0,0,0-12.278-.363,6.146,6.146,0,1,0,12.278.363" transform="translate(-44.223 -44.228)" fill="#fff"/>
  </g>
</svg>
