<svg id="Group_9713" data-name="Group 9713" xmlns="http://www.w3.org/2000/svg" xmlns:xlink="http://www.w3.org/1999/xlink" width="47.134" height="33.161" viewBox="0 0 47.134 33.161">
  <defs>
    <clipPath id="clip-path">
      <rect id="Rectangle_633" data-name="Rectangle 633" width="47.134" height="33.161" fill="#fff" stroke="#bb9532" stroke-width="1"/>
    </clipPath>
  </defs>
  <g id="Group_5101" data-name="Group 5101" clip-path="url(#clip-path)">
    <path id="Path_459" data-name="Path 459" d="M0,3.315A9.593,9.593,0,0,1,.756,1.748,3.67,3.67,0,0,1,3.564.094C4.231.052,4.9,0,5.566,0Q24.069,0,42.572,0a4.492,4.492,0,0,1,3.286,1.18,3.477,3.477,0,0,1,1.181,2.442q.071,12.558.1,25.115a4.248,4.248,0,0,1-1.19,3.147,3.907,3.907,0,0,1-2.738,1.258q-19.378.017-38.755.016a4.473,4.473,0,0,1-2.36-.544,4.178,4.178,0,0,1-2-2.65c-.012-.048-.06-.087-.091-.13V3.315m42.361-.522H4.655c.548.508,1.052.949,1.525,1.42q5.346,5.33,10.684,10.669,2.032,2.024,4.105,4.007a3.409,3.409,0,0,0,2,.9,4.369,4.369,0,0,0,3.7-1.384q5.215-5.193,10.445-10.37c1.74-1.729,3.47-3.467,5.243-5.239M42.3,30.37l.068-.084a3.739,3.739,0,0,1-.345-.271q-3.893-3.843-7.78-7.691c-1.155-1.144-2.315-2.285-3.441-3.456-.314-.326-.479-.282-.759.016-.631.67-1.267,1.34-1.957,1.945A7.342,7.342,0,0,1,26.5,21.906a6.839,6.839,0,0,1-4.2.563,5.363,5.363,0,0,1-2.591-1.075c-.95-.781-1.83-1.651-2.709-2.514-.3-.29-.446-.323-.759-.008Q11.07,24.078,5.865,29.252c-.37.369-.771.707-1.22,1.118ZM32.626,16.418,44.345,28.5V4.7L32.626,16.418M14.5,16.776,2.8,4.69V28.346l11.7-11.57" transform="translate(0 0.001)" fill="#fff" stroke="#bb9532" stroke-width="1"/>
  </g>
</svg>
