<svg xmlns="http://www.w3.org/2000/svg" xmlns:xlink="http://www.w3.org/1999/xlink" width="42.062" height="42.224" viewBox="0 0 42.062 42.224">
  <defs>
    <clipPath id="clip-path">
      <rect id="Rectangle_632" data-name="Rectangle 632" width="42.062" height="42.224" fill="#fff"/>
    </clipPath>
  </defs>
  <g id="Group_5099" data-name="Group 5099" clip-path="url(#clip-path)">
    <path id="Path_458" data-name="Path 458" d="M31.226,42.224c-.438-.083-.874-.174-1.313-.249a20.38,20.38,0,0,1-4.155-1.215,40.8,40.8,0,0,1-8.474-4.65c-1.3-.924-2.538-1.949-3.758-2.983-.937-.794-1.831-1.643-2.691-2.519a47.15,47.15,0,0,1-4.42-5.254A40.166,40.166,0,0,1,2.48,18.794,30.092,30.092,0,0,1,.307,12.722,12.227,12.227,0,0,1,.064,8.747a6.568,6.568,0,0,1,1.9-4.027C3.015,3.655,4.085,2.606,5.136,1.538A4.652,4.652,0,0,1,8.058.019a3.585,3.585,0,0,1,2.853.844c2.084,1.989,4.122,4.027,6.16,6.065A3.955,3.955,0,0,1,18.26,9.7a3.645,3.645,0,0,1-.889,2.528c-.487.554-1,1.083-1.521,1.61-.716.731-1.443,1.45-2.172,2.181a18.1,18.1,0,0,0,2.79,4.386c.659.778,1.346,1.533,2.032,2.289a29.165,29.165,0,0,0,5.685,4.763,15.108,15.108,0,0,0,1.753.928c.091.044.3-.046.394-.137,1.05-1.029,2.086-2.073,3.13-3.109a4,4,0,0,1,5.41-.244c.932.8,1.785,1.7,2.662,2.566,1.076,1.062,2.16,2.118,3.2,3.212A4.348,4.348,0,0,1,42.047,33.4a4.022,4.022,0,0,1-1.074,3.146c-.724.8-1.52,1.528-2.275,2.3-.488.5-.94,1.032-1.444,1.513a6.247,6.247,0,0,1-3.845,1.793c-.042,0-.081.049-.122.076ZM2.2,10.055l-.113.016c.154.924.254,1.861.472,2.77a26.555,26.555,0,0,0,1.9,5.126,30.878,30.878,0,0,0,3.3,5.529c1.266,1.666,2.542,3.332,3.932,4.891a42.23,42.23,0,0,0,3.609,3.46,35.526,35.526,0,0,0,3.2,2.526A39.57,39.57,0,0,0,26.334,38.7a15.813,15.813,0,0,0,6.291,1.393,4.715,4.715,0,0,0,3.305-1.38c.578-.562,1.113-1.169,1.676-1.747.5-.512,1.006-1.016,1.516-1.516a2.1,2.1,0,0,0,.069-3.264q-2.659-2.733-5.4-5.39a1.978,1.978,0,0,0-2.986.044c-1.174,1.191-2.378,2.354-3.59,3.507a1.453,1.453,0,0,1-1.676.293,19.378,19.378,0,0,1-2.229-1.159A29.936,29.936,0,0,1,17.6,24.9c-1.308-1.354-2.526-2.8-3.7-4.276A15.594,15.594,0,0,1,11.551,16.5a1.594,1.594,0,0,1,.421-1.833c.457-.451.95-.866,1.4-1.321.713-.719,1.4-1.465,2.108-2.189a1.942,1.942,0,0,0-.036-2.811c-1.849-1.863-3.7-3.727-5.572-5.565a1.977,1.977,0,0,0-2.9-.011c-1.195,1.136-2.357,2.308-3.5,3.5a5.246,5.246,0,0,0-.865,1.294,4.664,4.664,0,0,0-.41,2.486" transform="translate(0 0)" fill="#fff"/>
  </g>
</svg>
