<svg xmlns="http://www.w3.org/2000/svg" width="88.761" height="88.781" viewBox="0 0 88.761 88.781">
  <g id="Group_11064" data-name="Group 11064" transform="translate(-172 -1124.997)">
    <path id="Path_44721" data-name="Path 44721" d="M0,406.46a13.345,13.345,0,0,1,1.535-1.738q8.246-8.233,16.484-16.474a5.719,5.719,0,0,1,.916-.787,1.689,1.689,0,0,1,2.319,2.319,5.178,5.178,0,0,1-.726.854q-8.541,8.551-17.093,17.09c-.362.361-.786.662-1.18.991H1.214A4.327,4.327,0,0,1,0,407.5Z" transform="translate(172 805.063)"/>
    <path id="Path_44722" data-name="Path 44722" d="M114.557,0c1.221-.054,1.98.609,1.873,2.258-.636,9.782-2.508,19.275-6.739,28.2a38.348,38.348,0,0,1-7.66,10.942c-2.956,2.927-5.88,5.888-8.833,8.818a1.994,1.994,0,0,0-.641,1.267c-.528,4.909-1.075,9.815-1.6,14.724a3.007,3.007,0,0,1-.909,1.9q-7.032,7-14.037,14.034a1.975,1.975,0,0,1-2.078.729,1.878,1.878,0,0,1-1.26-1.79c-.471-3.344-.967-6.684-1.434-10.029a1.333,1.333,0,0,0-.467-.868,25.766,25.766,0,0,1-2.085-2.08c-.543-.629-.773-.454-1.133.17-1.183,2.05-2.418,4.069-3.64,6.1-.9,1.493-2.059,1.635-3.3.4Q51.14,65.3,41.675,55.83c-1.257-1.258-1.114-2.369.412-3.289,2.076-1.252,4.15-2.509,6.241-3.736.489-.287.621-.467.14-.914-.8-.746-1.553-1.551-2.3-2.356a1.132,1.132,0,0,0-.771-.311q-4.757-.679-9.512-1.366c-.314-.045-.63-.089-.94-.157a1.719,1.719,0,0,1-.987-2.878c.146-.178.318-.335.481-.5q6.9-6.9,13.781-13.8a3.528,3.528,0,0,1,2.285-1.052c4.853-.507,9.7-1.062,14.552-1.587a1.883,1.883,0,0,0,1.179-.631c2.606-2.624,5.287-5.176,7.827-7.862A42.716,42.716,0,0,1,90.691,4.754,82.448,82.448,0,0,1,114.557,0M60.464,49.331a1.738,1.738,0,0,1,1.845-1.663,2.362,2.362,0,0,1,1.527.895c4.147,4.147,8.3,8.284,12.428,12.453.5.509.752.526,1.267.008,6.906-6.944,13.76-13.943,20.789-20.761A42.5,42.5,0,0,0,108.8,23.654a.963.963,0,0,0-.3-1.188c-1.433-1.385-2.828-2.809-4.238-4.219L93.962,7.953c-.252-.252-.429-.548-.934-.368a40.346,40.346,0,0,0-15.477,9.24q-13.469,13.5-26.978,26.952c-.6.6-.475.879.044,1.4Q60.966,55.477,71.28,65.82a5.164,5.164,0,0,1,.366.369c.239.293.446.279.7,0a13.3,13.3,0,0,1,1.354-1.34c.663-.531.68-.883.031-1.522-4.141-4.07-8.229-8.2-12.338-12.3a2.464,2.464,0,0,1-.93-1.7M65.448,65.06c-.009-.293-.238-.408-.393-.564Q58.5,57.937,51.95,51.372a.674.674,0,0,0-1.017-.109c-1.617,1.007-3.248,1.993-4.9,2.938-.57.326-.576.524-.12.977Q53.624,62.849,61.3,70.56c.389.39.593.508.927-.079C63.181,68.8,64.2,67.155,65.2,65.5c.088-.148.174-.3.253-.432M61.534,27.753c-3.4.378-6.766.763-10.138,1.119a1.967,1.967,0,0,0-1.255.648Q44.891,34.8,39.62,40.053c-.2.2-.463.349-.547.689a2.444,2.444,0,0,0,.4.132c2.482.36,4.967.7,7.446,1.079a1.192,1.192,0,0,0,1.107-.491q6.512-6.526,13.032-13.044c.174-.175.428-.3.473-.665M88.708,54.834a3.128,3.128,0,0,0-.36.251Q81.581,61.846,74.81,68.6a1.117,1.117,0,0,0-.275,1.1c.17,1.17.333,2.34.5,3.509.2,1.39.415,2.779.625,4.187a1.684,1.684,0,0,0,.8-.618c3.146-3.138,6.25-6.32,9.447-9.406a4.753,4.753,0,0,0,1.84-3.772,11.849,11.849,0,0,1,.2-1.8c.252-2.283.5-4.566.764-6.963m8.7-48.586L110.2,19.043a82.469,82.469,0,0,0,2.624-14.872c.043-.512-.179-.581-.6-.531-1.545.182-3.1.326-4.638.531a78.948,78.948,0,0,0-10.18,2.078" transform="translate(144.321 1125)" fill="#bb9532"/>
    <path id="Path_44723" data-name="Path 44723" d="M26.53,359.085a1.691,1.691,0,0,1,1.549,2.529,3.962,3.962,0,0,1-.655.8q-4.951,4.963-9.91,9.918a2.855,2.855,0,0,1-.956.729,1.624,1.624,0,0,1-1.9-.416,1.589,1.589,0,0,1-.271-1.919,3.448,3.448,0,0,1,.642-.807q5.011-5.026,10.032-10.041a2.027,2.027,0,0,1,1.468-.791" transform="translate(160.283 828.298)"/>
    <path id="Path_44724" data-name="Path 44724" d="M84.8,417.234a1.791,1.791,0,0,1-.643,1.29q-5.168,5.174-10.345,10.339a1.729,1.729,0,0,1-2.607.186,1.748,1.748,0,0,1,.153-2.609Q76.513,421.253,81.7,416.1a1.761,1.761,0,0,1,2.11-.519,1.638,1.638,0,0,1,.993,1.658" transform="translate(113.588 781.759)"/>
    <path id="Path_44725" data-name="Path 44725" d="M285.447,137.058a10.4,10.4,0,1,1-10.413-10.373,10.4,10.4,0,0,1,10.413,10.373m-3.47.019a6.925,6.925,0,1,0-6.935,6.915,6.925,6.925,0,0,0,6.935-6.915" transform="translate(-46.678 1020.323)"/>
    <path id="Path_44726" data-name="Path 44726" d="M162.275,249.511a1.691,1.691,0,0,1-1.685-1.718,1.716,1.716,0,0,1,1.726-1.686,1.751,1.751,0,0,1,1.7,1.728,1.732,1.732,0,0,1-1.741,1.677" transform="translate(39.309 921.648)"/>
  </g>
</svg>
