<svg xmlns="http://www.w3.org/2000/svg" width="88.242" height="84.156" viewBox="0 0 88.242 84.156">
  <g id="Group_11062" data-name="Group 11062" transform="translate(-1276 -1124.969)">
    <path id="Path_44727" data-name="Path 44727" d="M79.324,10.4l6.928.044c1.581.009,1.99.4,1.99,1.954V62.349c0,1.5-.415,1.907-1.944,1.907q-12.485,0-24.976-.01a1.216,1.216,0,0,0-1.2.615c-.847,1.33-1.788,2.6-2.789,4.03h1.187c.969.008,1.446.432,1.45,1.424q.027,6.133,0,12.266a1.391,1.391,0,0,1-1.5,1.533c-.206.015-.415,0-.622,0H24.159A4.788,4.788,0,0,1,23.1,84.07a1.141,1.141,0,0,1-1.026-1.2c.011-4.271,0-8.533.009-12.8,0-.859.539-1.314,1.55-1.357.531-.022,1.063,0,1.524,0-.38-1.381-.729-2.751-1.158-4.1-.059-.185-.508-.344-.779-.346-2.755-.025-5.511-.015-8.266-.015H1.88C.219,64.256,0,64.041,0,62.4V12.356c0-1.6.309-1.909,1.908-1.912q3.378-.007,6.755-.007a1.7,1.7,0,0,0,.237-.043c.012-.241.037-.5.037-.752,0-1.925.008-3.852,0-5.777a1.533,1.533,0,0,1,1.3-1.624C12.9,1.667,15.572,1.154,18.242.62A54,54,0,0,1,30.817.138a61.143,61.143,0,0,1,12.552,1.97,2.163,2.163,0,0,0,.946.079c2.235-.5,4.453-1.081,6.7-1.533A22.413,22.413,0,0,1,54.65.279c2.948-.1,5.9-.266,8.845-.151a72.544,72.544,0,0,1,7.783.861c2.1.312,4.175.8,6.256,1.233,1.29.267,1.611.7,1.616,2.045q.011,2.977.027,5.953l.146.177m0,2.865-.146.156c-.009.329-.027.651-.027.975q0,19.945.013,39.89c0,1.908-.859,2.149-2.348,1.989-2.19-.237-4.381-.486-6.571-.712-.9-.092-1.8-.14-2.707-.2-1.215-.079-2.43-.15-3.773-.231a7.642,7.642,0,0,1-1.488,6.313H85.467V13.264Zm-22.9,24.516q-.016,6.664-.034,13.328c0,1.238-.473,1.8-1.507,1.794-.89,0-1.234-.455-1.241-1.714q-.042-7.464-.062-14.927c0-2.428.055-4.856.047-7.284a5.9,5.9,0,0,0-.268-1.533,2.3,2.3,0,0,0-2.544-1.359,2.183,2.183,0,0,0-1.883,2.15V46.717c0,1.178-.476,1.735-1.463,1.73S46.21,48.1,46.2,46.79q-.067-10.831-.126-21.664c-.01-1.908-.256-2.235-2.091-2.689a2.059,2.059,0,0,0-2.494,2.011q0,11.02-.009,22.039a2.825,2.825,0,0,1-.015.709c-.17.636-.421,1.216-1.227,1.253-1.117.05-1.481-.269-1.483-1.418-.009-5.688.016-11.376-.025-17.063a8.26,8.26,0,0,0-.483-2.705A2.426,2.426,0,0,0,35.7,26.068a2.232,2.232,0,0,0-1.884,2.25c-.007,1.321.11,2.64.11,3.961q.022,7.288-.008,14.576c0,1.162-.478,1.613-1.587,1.6-.862-.009-1.183-.418-1.183-1.541q0-7.42-.015-14.841a4.334,4.334,0,0,0-.192-1.28A2.474,2.474,0,0,0,28.2,29.426a2.217,2.217,0,0,0-1.781,1.942q.031,11.718.064,23.437c.008,2.577.042,5.154.026,7.731a11.485,11.485,0,0,0,1.652,5.653,1.307,1.307,0,0,0,.95.58q12.131.048,24.262.011a.992.992,0,0,0,.712-.329c1.942-2.7,3.877-5.4,5.769-8.133a7.426,7.426,0,0,0,1.376-4.653C61.1,52,61.215,48.32,61.2,44.647a13.812,13.812,0,0,0-.2-2.173,5.889,5.889,0,0,0-4.438-4.849l-.14.149M49.046,23.818a4.576,4.576,0,0,1,1.107-.419A5.25,5.25,0,0,1,56.4,28.961v5.731c.367.094.649.157.925.239A8.685,8.685,0,0,1,63.826,42.6c.211,2.913.127,5.847.173,8.772v.922L76.346,53.3V4.832C66.04,2.3,55.8,1.937,45.543,4.8V19.835a7.739,7.739,0,0,1,1.821,1.241,22.709,22.709,0,0,1,1.682,2.738m-10.376.11c.784-2.354,1.355-2.983,3.624-4.123a.813.813,0,0,0,.291-.624c.016-4.591.021-9.183-.012-13.774a.931.931,0,0,0-.563-.674c-1.2-.3-2.429-.462-3.627-.757A57.607,57.607,0,0,0,27.937,2.778a51.871,51.871,0,0,0-5.73.158,28.427,28.427,0,0,0-3.64.368c-2.277.417-4.535.939-6.864,1.429V53.379l11.953-1.026c.018-.187.034-.274.034-.36q.005-10.308.009-20.616a2.24,2.24,0,0,1,.01-.614c.98-3.3,3.494-4.721,6.824-3.749.665.194.78-.008.969-.514a4.791,4.791,0,0,1,2.171-2.519,5.308,5.308,0,0,1,4.993-.045m-15,31.235c-1.7.136-3.3.232-4.893.4q-3.8.4-7.6.887c-1.55.2-2.229-.358-2.235-1.964v-41.2H2.775V61.43H23.664ZM57.2,71.608H24.853v9.669H57.2Z" transform="translate(1276 1124.997)" fill="#bb9532"/>
    <path id="Path_44728" data-name="Path 44728" d="M333.5,43.2l-.146-.177.146.177" transform="translate(1021.82 1092.196)" fill="#f4f4f4"/>
    <path id="Path_44729" data-name="Path 44729" d="M333.5,55.833l-.146.156.146-.156" transform="translate(1021.821 1082.429)" fill="#f4f4f4"/>
    <path id="Path_44730" data-name="Path 44730" d="M237.712,158.409l-.139.149.139-.149" transform="translate(1094.858 1004.216)" fill="#f4f4f4"/>
    <path id="Path_44731" data-name="Path 44731" d="M220.226,59.029h-9.679c-1.19,0-1.567-.343-1.563-1.36,0-.993.409-1.358,1.588-1.359q9.767-.009,19.535,0c.948,0,1.712.6,1.612,1.334-.115.842-.438,1.4-1.637,1.393-3.286-.014-6.571,0-9.857,0" transform="translate(1116.653 1082.07)"/>
    <path id="Path_44732" data-name="Path 44732" d="M220.172,32.88c-3.226,0-6.453.009-9.679,0-1.153,0-1.533-.394-1.509-1.424.024-.876.378-1.267,1.29-1.284,1.687-.03,3.374-.015,5.061-.015h14.74c1.29,0,1.946.876,1.478,1.956a1.434,1.434,0,0,1-1.526.774q-4.928-.008-9.857,0" transform="translate(1116.65 1102.013)"/>
    <path id="Path_44733" data-name="Path 44733" d="M261.85,85.118c-1.39,0-2.781-.018-4.17.007-.906.015-1.409-.409-1.522-1.412a1.4,1.4,0,0,1,1.437-1.328q4.392-.034,8.784.01a1.393,1.393,0,0,1,1.322,1.372,1.353,1.353,0,0,1-1.413,1.347c-1.479.021-2.957.005-4.437.005" transform="translate(1080.688 1062.195)"/>
    <path id="Path_44734" data-name="Path 44734" d="M77.293,59.028H67.529c-1,0-1.54-.492-1.533-1.356,0-.964.409-1.36,1.5-1.361q9.808-.014,19.617,0c1.047,0,1.479.448,1.46,1.417a1.333,1.333,0,0,1-1.516,1.3q-4.881.007-9.764,0" transform="translate(1225.682 1082.071)"/>
    <path id="Path_44735" data-name="Path 44735" d="M77.228,32.885c-3.286,0-6.571-.025-9.85.015a1.376,1.376,0,0,1-1.457-1.517c.084-.752.438-1.182,1.2-1.2,1.005-.027,2.011-.022,3.017-.022H86.828c1.005,0,1.653.486,1.689,1.244a1.33,1.33,0,0,1-1.432,1.481c-3.286.011-6.571,0-9.851,0Z" transform="translate(1225.743 1102.005)"/>
    <path id="Path_44736" data-name="Path 44736" d="M71.62,85.118H67.447a1.314,1.314,0,0,1-1.459-1.247c-.03-.96.336-1.451,1.314-1.465q4.394-.065,8.789-.011c.94.011,1.323.531,1.28,1.493a1.3,1.3,0,0,1-1.4,1.23c-1.45.01-2.9,0-4.35,0" transform="translate(1225.688 1062.195)"/>
    <rect id="Rectangle_4186" data-name="Rectangle 4186" width="88.242" height="84.125" transform="translate(1276 1125)" fill="none"/>
  </g>
</svg>
