<svg xmlns="http://www.w3.org/2000/svg" width="88.725" height="88.777" viewBox="0 0 88.725 88.777">
  <g id="Group_11063" data-name="Group 11063" transform="translate(-723.999 -1124.999)">
    <path id="Path_44718" data-name="Path 44718" d="M46.064,11.837c0,3.242.006,6.484,0,9.727,0,1.633-.567,2.188-2.2,2.218A20.646,20.646,0,0,0,40.4,64.667c10.789,2.218,22.146-5.455,24.19-16.346A23.34,23.34,0,0,0,65,44.6a1.709,1.709,0,0,1,1.927-1.9q9.919-.025,19.838,0a1.727,1.727,0,0,1,1.953,1.777c-.02,1.058-.743,1.661-2.032,1.667-1.958.008-3.917.029-5.874-.009-.924-.017-1.323.332-1.4,1.273A35.659,35.659,0,0,1,52.953,78.8c-1.272.321-2.129-.065-2.4-1.081-.3-1.113.246-1.91,1.608-2.267a30.656,30.656,0,0,0,9.529-4.245A31.856,31.856,0,0,0,75.924,48.123c.034-.254.041-.512.055-.768.058-1.076-.1-1.261-1.159-1.268-1.733-.011-3.468.027-5.2-.015-.918-.022-1.286.323-1.417,1.254A24.018,24.018,0,0,1,49.142,67.978a10.632,10.632,0,0,1-1.8.284c-.989.042-1.3.51-1.292,1.474.033,5.521.016,11.043.016,16.564,0,1.685-.57,2.5-1.728,2.476-1.111-.023-1.655-.826-1.656-2.451V81.51c0-1.57-.092-1.68-1.643-1.836A33.97,33.97,0,0,1,26.563,74.85,34.938,34.938,0,0,1,10.374,52.91c-.3-1.186.1-2.082,1.036-2.351,1.05-.3,1.855.257,2.2,1.547q4.49,16.572,20.572,22.57a31.109,31.109,0,0,0,7.4,1.629c.73.082,1.091-.26,1.093-.98,0-1.99-.01-3.98.006-5.97.007-.83-.516-.986-1.18-1.076a23.787,23.787,0,0,1-15.947-8.945,23.314,23.314,0,0,1-4.917-11.44c-.256-1.776-.261-1.776-2.025-1.776q-8.234,0-16.467.005a2.04,2.04,0,0,1-1.738-.631,1.649,1.649,0,0,1-.242-1.808,1.72,1.72,0,0,1,1.71-1.024H7.653c1.583,0,1.659-.067,1.8-1.656A35.73,35.73,0,0,1,35.03,9.773c1.167-.345,1.972-.069,2.4.786.543,1.09-.058,2.168-1.482,2.565A29.408,29.408,0,0,0,27.8,16.737,31.754,31.754,0,0,0,12.827,41.39c-.1,1.015.138,1.285,1.15,1.292,1.765.013,3.531-.012,5.3.01.8.01,1.13-.346,1.235-1.13a24.059,24.059,0,0,1,20.279-21c1.893-.32,1.893-.32,1.893-2.259V2.316a3.278,3.278,0,0,1,.135-1.236,1.661,1.661,0,0,1,3.108-.013A3.275,3.275,0,0,1,46.065,2.3v9.534" transform="translate(724 1125)" fill="#bb9532"/>
    <path id="Path_44719" data-name="Path 44719" d="M187.716,51.361c-3.379-.891-5.559.814-7.72,3.17-3.53,3.852-7.329,7.458-11.008,11.173a1.835,1.835,0,0,1-2.13.672,1.662,1.662,0,0,1-.817-2.466,4.551,4.551,0,0,1,.636-.718q6.774-6.837,13.563-13.658a2.133,2.133,0,0,0,.685-1.69c-.034-2.277.007-4.555-.023-6.833a2.64,2.64,0,0,1,.838-2.051q5.743-5.69,11.443-11.423a1.776,1.776,0,0,1,3.239,1.314c-.024,1.86-.012,3.721-.005,5.582,0,1.154.272,1.428,1.4,1.433,1.893.008,3.786.017,5.678,0a1.764,1.764,0,0,1,1.881,1.04,1.811,1.811,0,0,1-.631,2.127q-5.77,5.662-11.464,11.4a2.818,2.818,0,0,1-2.3.942c-1.088-.057-2.181-.013-3.272-.013m.072-3.387h2.5a1.127,1.127,0,0,0,.882-.284q3.451-3.488,6.916-6.962a.843.843,0,0,0,.262-1.035.921.921,0,0,0-.947-.514c-.513.006-1.026,0-1.539,0-2.624,0-2.953-.324-2.953-2.9,0-.417-.01-.834,0-1.251.015-.508-.045-.984-.6-1.188-.512-.189-.843.139-1.166.469q-3.2,3.262-6.408,6.518A1.55,1.55,0,0,0,184.22,42c.023,1.6.03,3.207,0,4.811-.015.832.378,1.167,1.162,1.163h2.4" transform="translate(600.889 1105.165)"/>
    <path id="Path_44720" data-name="Path 44720" d="M131.222,145.74a14.226,14.226,0,0,1-1.581-28.363c.414-.046.829-.105,1.245-.113a1.705,1.705,0,0,1,1.926,1.58,1.669,1.669,0,0,1-1.73,1.788,11.42,11.42,0,0,0-4.631,1.134,10.828,10.828,0,0,0,4.9,20.533c5.948-.08,10.262-4.326,10.681-10.553.062-.912.3-1.661,1.219-1.977a1.709,1.709,0,0,1,2.256,1.841,14.071,14.071,0,0,1-8.06,12.721,13.249,13.249,0,0,1-6.227,1.409" transform="translate(637.1 1037.913)"/>
  </g>
</svg>
