<svg xmlns="http://www.w3.org/2000/svg" width="12.434" height="26.764" viewBox="0 0 12.434 26.764">
  <g id="Group_165" data-name="Group 165" transform="translate(0 0)">
    <g id="Group_164" data-name="Group 164" transform="translate(0)">
      <path id="Path_343" data-name="Path 343" d="M335.819,736.835v12.94a.337.337,0,0,0,.337.337h4.8a.337.337,0,0,0,.337-.337V736.624h3.484a.337.337,0,0,0,.336-.309l.335-3.962a.338.338,0,0,0-.336-.366H341.3v-2.811a1.193,1.193,0,0,1,1.193-1.193h2.685a.337.337,0,0,0,.337-.338v-3.961a.337.337,0,0,0-.337-.337H340.64a4.821,4.821,0,0,0-4.821,4.82v3.82h-2.4a.338.338,0,0,0-.337.337v3.962a.337.337,0,0,0,.337.337h2.4Z" transform="translate(-333.079 -723.348)" fill="#ffffff" fill-rule="evenodd"/>
    </g>
  </g>
</svg>
