<svg xmlns="http://www.w3.org/2000/svg" width="82" height="82" viewBox="0 0 82 82">
  <g id="Group_10735" data-name="Group 10735" transform="translate(-919 -5418)">
    <g id="Ellipse_16" data-name="Ellipse 16" transform="translate(919 5418)" stroke="#bb9532" stroke-width="2">
      <circle cx="41" cy="41" r="41" stroke="none"/>
      <circle cx="41" cy="41" r="40" fill="none"/>
    </g>
    <path id="Path_44698" data-name="Path 44698" d="M0,12.947a1.606,1.606,0,0,1,1.676-.915c15.392.009,14.268.007,29.66.007H32.1c-.207-.223-.335-.372-.473-.51q-4.643-4.65-9.286-9.3A1.245,1.245,0,0,1,22.094.447,1.152,1.152,0,0,1,23.7.234a5.077,5.077,0,0,1,.534.482Q29.921,6.4,35.606,12.083c.9.9.894,1.447-.008,2.35q-5.776,5.776-11.552,11.552c-.726.726-1.587.7-2.045-.051a1.1,1.1,0,0,1,.022-1.258,4.017,4.017,0,0,1,.506-.581q4.534-4.54,9.075-9.072a4.142,4.142,0,0,1,.493-.368l-.086-.175H31.43c-15.444,0-14.371,0-29.814.006A1.544,1.544,0,0,1,0,13.565Z" transform="translate(947 5477.276) rotate(-90)" fill="#fff"/>
  </g>
</svg>
