<svg xmlns="http://www.w3.org/2000/svg" width="237.614" height="80.946" viewBox="0 0 237.614 80.946">
  <g id="Group_1" data-name="Group 1" transform="translate(-791 -1256)">
    <path id="Path_32289" data-name="Path 32289" d="M40.43,0a40.5,40.5,0,0,1,2,80.946V79.182h-.017v-.12h.017V8.579c12.6,3.528,20.652,22.621,13.254,36.766-7.774,14.881-4.572,21.439,2.688,26.885a36.51,36.51,0,0,0,7.809-57.537A36.447,36.447,0,0,0,14.675,66.27a36.974,36.974,0,0,0,7.809,5.959c7.261-5.463,10.463-12.021,2.688-26.885-7.4-14.145.651-33.238,13.254-36.766V79.045h.017v.12h-.017v1.764A40.491,40.491,0,0,1,40.43,0" transform="translate(791 1256)" fill="#bb9532"/>
    <g id="Group_9152" data-name="Group 9152" transform="translate(884.481 1270.538)">
      <g id="Group_9151" data-name="Group 9151" transform="translate(0.325 40.738)">
        <path id="Path_32290" data-name="Path 32290" d="M54.78,39.7v-.428a1.489,1.489,0,0,0,.753-.1q.077-.051.1-.36c.034-.668.068-1.421.068-2.295,0-.651,0-1.336-.017-2.072a6.045,6.045,0,0,0-.086-1.267.175.175,0,0,0-.086-.1,2.434,2.434,0,0,0-.719-.086V32.56c.6,0,1.113.017,1.524.017h3.117c.223,0,.428,0,.634.017l.051.1a11.67,11.67,0,0,0-.137,1.507h-.428l-.034-.548a.606.606,0,0,0-.069-.325.82.82,0,0,0-.377-.12,6.018,6.018,0,0,0-.925-.068,6.114,6.114,0,0,0-.942.051c-.034.565-.051.976-.051,1.216v1.336H57.9a5.394,5.394,0,0,0,.942-.034c.051,0,.086-.034.12-.086a2.3,2.3,0,0,0,.086-.634h.428v2.226h-.428a3.532,3.532,0,0,0-.1-.771.218.218,0,0,0-.12-.086,4.24,4.24,0,0,0-.993-.068H57.16l.017,1.969a2.983,2.983,0,0,0,.068.822.2.2,0,0,0,.1.1,3.587,3.587,0,0,0,.856.086V39.7c-.548-.017-1.045-.034-1.524-.034-.428,0-1.045,0-1.884.034Z" transform="translate(-54.78 -32.081)" fill="#bb9532"/>
        <path id="Path_32291" data-name="Path 32291" d="M63.146,38.361v.411h-.394c-.205-.017-.411-.034-.616-.034a7.743,7.743,0,0,0-.908.034l-.051-.051.051-.7-1.062.788a1.9,1.9,0,0,1-.5.069,1.072,1.072,0,0,1-.839-.325,1.377,1.377,0,0,1-.291-.942,1.3,1.3,0,0,1,.394-1.062,5.8,5.8,0,0,1,2.295-.719,1.493,1.493,0,0,0-.205-.873.994.994,0,0,0-.856-.377.9.9,0,0,0-.291.034.988.988,0,0,0-.291.1l-.223.548L59,35.176v-.651a5.758,5.758,0,0,1,1.113-.6,1.906,1.906,0,0,1,.685-.086,2.3,2.3,0,0,1,.976.188,1.2,1.2,0,0,1,.548.5,1.859,1.859,0,0,1,.171.908c0,.171,0,.462-.017.89,0,.445-.017.8-.017,1.062a3.584,3.584,0,0,0,.034.771.147.147,0,0,0,.1.12,1.617,1.617,0,0,0,.548.086Zm-1.918-2.089a3.111,3.111,0,0,0-1.164.428.749.749,0,0,0-.274.616.676.676,0,0,0,.171.5.568.568,0,0,0,.428.171,1.173,1.173,0,0,0,.822-.445v-1.25Z" transform="translate(-52.101 -31.169)" fill="#bb9532"/>
        <path id="Path_32292" data-name="Path 32292" d="M61.917,38.789v-.411a1.6,1.6,0,0,0,.6-.068.189.189,0,0,0,.086-.171,9.1,9.1,0,0,0,.034-1.182,15.392,15.392,0,0,0-.051-2.123c-.034-.086-.137-.137-.36-.137H61.9V34.3a10.648,10.648,0,0,0,1.062-.171,7.559,7.559,0,0,0,.8-.24.606.606,0,0,0,.1-.017c.051,0,.068.034.068.12v.7l.839-.634a1.294,1.294,0,0,1,.8-.205,1.545,1.545,0,0,1,.856.205,1.375,1.375,0,0,1,.5.668l.856-.685a1.073,1.073,0,0,1,.7-.205,1.611,1.611,0,0,1,1.182.394,1.753,1.753,0,0,1,.377,1.267v.428c-.017.462-.034.89-.034,1.25a3.946,3.946,0,0,0,.051.942.246.246,0,0,0,.1.171,1.659,1.659,0,0,0,.565.086v.411c-.428-.017-.788-.034-1.1-.034a8.817,8.817,0,0,0-.942.034l-.069-.1a18.427,18.427,0,0,0,.137-2.141A3.845,3.845,0,0,0,68.578,35a.755.755,0,0,0-.685-.308.978.978,0,0,0-.548.154.806.806,0,0,0-.325.36,4.172,4.172,0,0,0-.051.89c0,.89,0,1.524.034,1.867,0,.154.034.257.086.291a1.873,1.873,0,0,0,.651.1v.411c-.445-.017-.873-.034-1.3-.034-.531,0-1.01,0-1.438.034v-.411c.342,0,.531-.051.582-.137a5.037,5.037,0,0,0,.086-1.284,10.913,10.913,0,0,0-.051-1.61.8.8,0,0,0-.24-.479.837.837,0,0,0-.548-.171.848.848,0,0,0-.462.12,1.3,1.3,0,0,0-.36.325.7.7,0,0,0-.086.36v.188c0,.1.017.36.017.8v.6c0,.582,0,.925.017,1.027a.18.18,0,0,0,.086.154,1.561,1.561,0,0,0,.565.086v.411c-.411-.017-.856-.034-1.336-.034-.171,0-.634,0-1.37.034Z" transform="translate(-49.708 -31.169)" fill="#bb9532"/>
        <path id="Path_32293" data-name="Path 32293" d="M67.69,39.8V39.39a2.046,2.046,0,0,0,.668-.068.42.42,0,0,0,.12-.291,13.221,13.221,0,0,0,.034-1.421V36.136c0-.205-.034-.325-.086-.36-.034-.051-.154-.068-.342-.086h-.377V35.28a6.2,6.2,0,0,0,2.021-.445l.12.1c-.051.651-.069,1.593-.069,2.843a10.3,10.3,0,0,0,.034,1.3.288.288,0,0,0,.086.205,2.158,2.158,0,0,0,.668.086v.411c-.616-.017-1.079-.034-1.421-.034-.171,0-.668,0-1.438.034Zm1.421-7.381a.716.716,0,0,1,.565.24.8.8,0,0,1-.565,1.37.716.716,0,0,1-.565-.24.776.776,0,0,1-.24-.565.716.716,0,0,1,.24-.565A.776.776,0,0,1,69.111,32.42Z" transform="translate(-45.583 -32.18)" fill="#bb9532"/>
        <path id="Path_32294" data-name="Path 32294" d="M70.06,33.068v-.291c.479-.068.856-.137,1.147-.205a9.1,9.1,0,0,0,.908-.291l.137.12c-.051,1.216-.068,2.911-.068,5.086,0,.445,0,.873.017,1.336a1.253,1.253,0,0,0,.051.5.181.181,0,0,0,.12.1,3.2,3.2,0,0,0,.6.068V39.9H72.44c-.325-.017-.616-.034-.839-.034l-1.524.034v-.411h.377c.171-.034.274-.051.325-.12a1.319,1.319,0,0,0,.086-.634c0-.514.017-1.25.017-2.192V34.369a4.919,4.919,0,0,0-.069-1.113.114.114,0,0,0-.068-.086,2.1,2.1,0,0,0-.685-.069Z" transform="translate(-43.894 -32.28)" fill="#bb9532"/>
        <path id="Path_32295" data-name="Path 32295" d="M72.3,34.318v-.411c.788.017,1.284.034,1.49.034.308,0,.719,0,1.284-.034v.411a1.569,1.569,0,0,0-.565.069.15.15,0,0,0-.086.154,10.117,10.117,0,0,0,.5,1.4l.548,1.4.479-1.113a9.046,9.046,0,0,0,.634-1.712.18.18,0,0,0-.086-.154,1.963,1.963,0,0,0-.548-.069V33.89h.325c.342.017.565.034.685.034s.445,0,.959-.034V34.3a1.277,1.277,0,0,0-.411.069.27.27,0,0,0-.12.12c-.051.069-.274.548-.651,1.4l-.942,2.175-.873,2a3.585,3.585,0,0,1-.531.856,1.28,1.28,0,0,1-.514.36,1.5,1.5,0,0,1-.634.12,1.706,1.706,0,0,1-.736-.171,7.327,7.327,0,0,0,.171-.976l.137-.051a.907.907,0,0,0,.7.325.7.7,0,0,0,.548-.223,4.767,4.767,0,0,0,.685-1.267l-1.13-2.877-.634-1.541a.573.573,0,0,0-.171-.24A1.647,1.647,0,0,0,72.3,34.3Z" transform="translate(-42.299 -31.133)" fill="#bb9532"/>
        <path id="Path_32296" data-name="Path 32296" d="M77.97,33v-.428c.651.017,1.233.034,1.764.034.479,0,.993,0,1.558-.034V33a3.746,3.746,0,0,0-.7.086.186.186,0,0,0-.12.171,6.328,6.328,0,0,0,.428,1.2l1.438,3.51,1.147-2.843a8.378,8.378,0,0,0,.634-1.884.172.172,0,0,0-.1-.171,2.872,2.872,0,0,0-.736-.086V32.55c.616.017,1.045.034,1.25.034s.616,0,1.182-.034v.428a1.5,1.5,0,0,0-.6.12,5.738,5.738,0,0,0-.582,1.164l-1.575,3.75a16.729,16.729,0,0,0-.685,1.781h-.736l-1.8-4.315c-.411-.993-.7-1.644-.873-2a1.169,1.169,0,0,0-.24-.377,1.9,1.9,0,0,0-.651-.12Z" transform="translate(-38.259 -32.088)" fill="#bb9532"/>
        <path id="Path_32297" data-name="Path 32297" d="M87.4,37.8l.154.154-.223.479a2.685,2.685,0,0,1-.788.342,3.726,3.726,0,0,1-.89.12,2.3,2.3,0,0,1-1.747-.651,2.442,2.442,0,0,1-.634-1.815,3.418,3.418,0,0,1,.188-1.216,1.545,1.545,0,0,1,.5-.651,5.9,5.9,0,0,1,.8-.5,2.18,2.18,0,0,1,.993-.24,2.119,2.119,0,0,1,1.387.462,1.88,1.88,0,0,1,.548,1.507,3.938,3.938,0,0,1-.017.394l-.839.154c-.257.017-.634.034-1.113.034h-1.1a1.991,1.991,0,0,0,.531,1.319,1.575,1.575,0,0,0,1.147.445,2.28,2.28,0,0,0,.582-.086,2.662,2.662,0,0,0,.565-.24Zm-2.843-1.969a8.194,8.194,0,0,0,.908.034,7.018,7.018,0,0,0,.839-.034v-.24a1.536,1.536,0,0,0-.223-.925.763.763,0,0,0-.616-.291.876.876,0,0,0-.479.137.8.8,0,0,0-.291.377,3.565,3.565,0,0,0-.154.925Z" transform="translate(-34.483 -31.176)" fill="#bb9532"/>
        <path id="Path_32298" data-name="Path 32298" d="M86.6,38.8v-.411a1.949,1.949,0,0,0,.634-.086c.051-.034.068-.12.086-.257.017-.342.034-.942.034-1.815,0-.428,0-.788-.017-1.113a1.094,1.094,0,0,0-.034-.342.171.171,0,0,0-.086-.068c-.034,0-.24-.017-.6-.034v-.394a4.132,4.132,0,0,0,.856-.12,6.356,6.356,0,0,0,.976-.274l.137-.051a.136.136,0,0,1,.068.12V34c0,.1-.017.342-.017.736l.788-.668a.929.929,0,0,1,.308-.171,2.383,2.383,0,0,1,.548-.068,1.834,1.834,0,0,1,.873.188,1.109,1.109,0,0,1,.5.514,2.583,2.583,0,0,1,.154,1.027v.7c0,.548-.017,1.027-.017,1.421a1.535,1.535,0,0,0,.051.479.2.2,0,0,0,.12.12,2.864,2.864,0,0,0,.565.068v.411h-.634l-.411-.034-1.045.034-.051-.068a15.071,15.071,0,0,0,.137-1.986,4.749,4.749,0,0,0-.154-1.593.761.761,0,0,0-.736-.394,1.025,1.025,0,0,0-.6.171.822.822,0,0,0-.325.377,2.361,2.361,0,0,0-.034.514v2.123c0,.188.034.291.086.325a1.738,1.738,0,0,0,.685.1v.411c-.582-.017-1.1-.034-1.49-.034-.24,0-.685,0-1.319.034Z" transform="translate(-32.111 -31.176)" fill="#bb9532"/>
        <path id="Path_32299" data-name="Path 32299" d="M90.58,35.394l.685-.445c0-.6-.017-1.13-.051-1.575a8.108,8.108,0,0,0,1.319-.514l.154.12c-.068.5-.12,1.147-.154,1.986a2.1,2.1,0,0,0,.462.034,5.088,5.088,0,0,0,.925-.068l.051.034-.051.188c-.051.188-.086.36-.12.531-.394-.034-.685-.034-.873-.034a3.3,3.3,0,0,0-.411.017v.908a9.073,9.073,0,0,0,.1,1.952.466.466,0,0,0,.479.24,1.213,1.213,0,0,0,.24-.017,2.129,2.129,0,0,0,.274-.068l.086.188c-.206.223-.411.462-.6.7-.12.017-.24.034-.342.051a1.649,1.649,0,0,1-.291,0,1.492,1.492,0,0,1-.719-.154.983.983,0,0,1-.411-.377,1.494,1.494,0,0,1-.137-.7c0-.171,0-.6.034-1.284,0-.616.017-1.1.017-1.438h-.257a3.739,3.739,0,0,0-.411.017v-.274Z" transform="translate(-29.276 -31.867)" fill="#bb9532"/>
        <path id="Path_32300" data-name="Path 32300" d="M93.041,34.683v-.394A8.291,8.291,0,0,0,94.565,34l.5-.171a.139.139,0,0,1,.086.12v.308a20.707,20.707,0,0,0-.1,2.26,3.819,3.819,0,0,0,.068.942.7.7,0,0,0,.257.36.855.855,0,0,0,.5.12,1.039,1.039,0,0,0,.634-.205.832.832,0,0,0,.342-.445,8.752,8.752,0,0,0,.069-1.37,6.584,6.584,0,0,0-.034-1.062.173.173,0,0,0-.069-.12,2.681,2.681,0,0,0-.685-.069v-.394A9.283,9.283,0,0,0,97.648,34l.531-.188s.086.034.086.1v.137c-.069.6-.086,1.661-.086,3.219a5.019,5.019,0,0,0,.034.89.16.16,0,0,0,.086.12,2.887,2.887,0,0,0,.634.086v.411c-.394-.017-.771-.034-1.147-.034a7.161,7.161,0,0,0-.873.034l-.051-.086c0-.171.034-.428.034-.8-.308.257-.616.531-.925.839a1.824,1.824,0,0,1-1.541-.034,1.3,1.3,0,0,1-.514-.5,1.887,1.887,0,0,1-.171-.856V36.79c.017-.342.017-.616.017-.839a7,7,0,0,0-.034-1.079.2.2,0,0,0-.1-.171,1.923,1.923,0,0,0-.634-.051Z" transform="translate(-27.559 -31.19)" fill="#bb9532"/>
        <path id="Path_32301" data-name="Path 32301" d="M97.05,38.8v-.411a1.409,1.409,0,0,0,.582-.068.291.291,0,0,0,.1-.1,2.224,2.224,0,0,0,.068-.548c0-.5.017-.942.017-1.353a11.734,11.734,0,0,0-.034-1.4.245.245,0,0,0-.086-.188,1.83,1.83,0,0,0-.651-.069v-.394a9.27,9.27,0,0,0,1.473-.24l.531-.188a.127.127,0,0,1,.068.1V34c0,.205-.017.514-.017.925.171-.171.36-.377.582-.634a1.569,1.569,0,0,1,.411-.377,1.172,1.172,0,0,1,.462-.086,1.075,1.075,0,0,1,.325.051c-.034.342-.051.8-.068,1.387l-.223.086a.8.8,0,0,0-.257-.274.7.7,0,0,0-.36-.086.922.922,0,0,0-.531.154.682.682,0,0,0-.274.36,6.313,6.313,0,0,0-.034,1.045,13.075,13.075,0,0,0,.034,1.507.209.209,0,0,0,.1.188,2.207,2.207,0,0,0,.771.1v.411h-.565c-.36-.017-.668-.034-.942-.034H97.084Z" transform="translate(-24.666 -31.176)" fill="#bb9532"/>
        <path id="Path_32302" data-name="Path 32302" d="M104.1,37.8l.154.154-.223.479a2.686,2.686,0,0,1-.788.342,3.726,3.726,0,0,1-.89.12,2.3,2.3,0,0,1-1.747-.651,2.442,2.442,0,0,1-.634-1.815,3.418,3.418,0,0,1,.188-1.216,1.545,1.545,0,0,1,.5-.651,5.9,5.9,0,0,1,.8-.5,2.18,2.18,0,0,1,.993-.24,2.119,2.119,0,0,1,1.387.462,1.88,1.88,0,0,1,.548,1.507,3.942,3.942,0,0,1-.017.394l-.839.154c-.257.017-.634.034-1.113.034h-1.1a1.991,1.991,0,0,0,.531,1.319,1.575,1.575,0,0,0,1.147.445,2.28,2.28,0,0,0,.582-.086,2.662,2.662,0,0,0,.565-.24Zm-2.843-1.969a8.194,8.194,0,0,0,.908.034,7.018,7.018,0,0,0,.839-.034v-.24a1.536,1.536,0,0,0-.223-.925.763.763,0,0,0-.616-.291.876.876,0,0,0-.479.137.8.8,0,0,0-.291.377,3.565,3.565,0,0,0-.154.925Z" transform="translate(-22.586 -31.176)" fill="#bb9532"/>
        <path id="Path_32303" data-name="Path 32303" d="M103.884,37.135a2.2,2.2,0,0,0,.068.736.842.842,0,0,0,.428.36,1.589,1.589,0,0,0,.719.154,1.112,1.112,0,0,0,.736-.205.712.712,0,0,0,.24-.548.7.7,0,0,0-.171-.462,1.611,1.611,0,0,0-.771-.291,4.981,4.981,0,0,1-1.147-.342,1.141,1.141,0,0,1-.428-.428,1.4,1.4,0,0,1-.154-.685,1.365,1.365,0,0,1,.24-.822,1.558,1.558,0,0,1,.668-.565,2.783,2.783,0,0,1,1.164-.205,4.319,4.319,0,0,1,1.4.24,9.789,9.789,0,0,0-.086,1.284h-.411a2.347,2.347,0,0,0-.086-.651.622.622,0,0,0-.291-.257,1.621,1.621,0,0,0-.634-.137,1.069,1.069,0,0,0-.668.188.6.6,0,0,0-.24.479.52.52,0,0,0,.205.428,3.029,3.029,0,0,0,1.01.308,4.952,4.952,0,0,1,.771.188,1.29,1.29,0,0,1,.548.445,1.242,1.242,0,0,1,.188.736,1.5,1.5,0,0,1-.668,1.319,2.728,2.728,0,0,1-1.593.462,3.429,3.429,0,0,1-.685-.069c-.257-.051-.514-.12-.8-.205l-.069-.086a12.163,12.163,0,0,0,.069-1.387h.428Z" transform="translate(-20.164 -31.176)" fill="#bb9532"/>
        <path id="Path_32304" data-name="Path 32304" d="M108.327,39.708V39.28a2.566,2.566,0,0,0,.685-.1.175.175,0,0,0,.086-.1,6.154,6.154,0,0,0,.068-1.062c.017-.634.017-1.216.017-1.8,0-1.079,0-1.849-.034-2.329a2.577,2.577,0,0,0-.1-.788.805.805,0,0,0-.445-.1h-.291V32.55h.582a8.4,8.4,0,0,0,.856.034c.291,0,.753,0,1.387-.017h.771a3.863,3.863,0,0,1,1.353.171,1.387,1.387,0,0,1,.668.531,1.579,1.579,0,0,1,.223.873,2.083,2.083,0,0,1-.668,1.575,2.34,2.34,0,0,1-1.7.634,1.473,1.473,0,0,1-.274-.017,1.93,1.93,0,0,1-.308-.051,3.62,3.62,0,0,0-.188-.36l.12-.12a1.211,1.211,0,0,0,.205.034h.171a1.088,1.088,0,0,0,.839-.36,1.391,1.391,0,0,0,.325-.993,1.491,1.491,0,0,0-.342-1.062,1.276,1.276,0,0,0-.993-.342,2.932,2.932,0,0,0-.616.068c-.034,1.045-.051,1.935-.051,2.654,0,.24,0,1.027.034,2.329a5.354,5.354,0,0,0,.051.89.147.147,0,0,0,.1.12,4.208,4.208,0,0,0,.856.1v.428c-.6-.017-1.113-.034-1.524-.034-.188,0-.8,0-1.867.034Z" transform="translate(-16.644 -32.088)" fill="#bb9532"/>
        <path id="Path_32305" data-name="Path 32305" d="M112.18,34.311V33.9l1.3.034c.445,0,.908,0,1.421-.034v.411a2.506,2.506,0,0,0-.565.051.153.153,0,0,0-.086.137.576.576,0,0,0,.051.24l.308.856.685,1.764.668-1.558a5.855,5.855,0,0,0,.462-1.284.136.136,0,0,0-.086-.137,2.443,2.443,0,0,0-.582-.051v-.411c.445.017.8.034,1.079.034a9.624,9.624,0,0,0,.976-.034v.411a.953.953,0,0,0-.514.1,7.324,7.324,0,0,0-.582,1.13c-.325.7-.788,1.764-1.37,3.185h-.89c-.223-.616-.565-1.49-1.01-2.6-.291-.736-.5-1.216-.6-1.438a.655.655,0,0,0-.188-.274,1.3,1.3,0,0,0-.445-.086Z" transform="translate(-13.887 -31.126)" fill="#bb9532"/>
        <path id="Path_32306" data-name="Path 32306" d="M115.99,35.394l.685-.445c0-.6-.017-1.13-.051-1.575a8.108,8.108,0,0,0,1.319-.514l.154.12c-.068.5-.12,1.147-.154,1.986A2.1,2.1,0,0,0,118.4,35a5.088,5.088,0,0,0,.925-.068l.051.034-.051.188c-.051.188-.086.36-.12.531-.394-.034-.685-.034-.873-.034a3.3,3.3,0,0,0-.411.017v.908a9.073,9.073,0,0,0,.1,1.952.466.466,0,0,0,.479.24,1.213,1.213,0,0,0,.24-.017,2.129,2.129,0,0,0,.274-.068l.086.188c-.205.223-.411.462-.6.7-.12.017-.24.034-.342.051a1.649,1.649,0,0,1-.291,0,1.492,1.492,0,0,1-.719-.154.983.983,0,0,1-.411-.377,1.494,1.494,0,0,1-.137-.7c0-.171,0-.6.034-1.284,0-.616.017-1.1.017-1.438H116.4a3.739,3.739,0,0,0-.411.017v-.274Z" transform="translate(-11.173 -31.867)" fill="#bb9532"/>
        <path id="Path_32307" data-name="Path 32307" d="M120.745,39.7v-.257a3.293,3.293,0,0,0,.531-.308c.051-.925.069-1.884.069-2.877,0-.788,0-1.524-.017-2.226a3.125,3.125,0,0,0-.068-.856c0-.051-.051-.068-.1-.1a5.419,5.419,0,0,0-.736-.086V32.56c.651,0,1.267.017,1.815.017s1.062,0,1.541-.017v.428a2.588,2.588,0,0,0-.8.12c-.051.034-.068.086-.086.188s-.034.651-.034,1.644l-.034,2.483c0,.462,0,.993.034,1.61.445.017.771.034.976.034a7.117,7.117,0,0,0,1.61-.154c.086-.308.171-.668.257-1.1h.445q-.1.745-.205,1.849c-.325.017-.616.034-.89.034h-1.832l-.822-.034c-.377,0-.925,0-1.627.034Z" transform="translate(-8.017 -32.081)" fill="#bb9532"/>
        <path id="Path_32308" data-name="Path 32308" d="M124.35,35.394l.685-.445c0-.6-.017-1.13-.051-1.575a8.108,8.108,0,0,0,1.319-.514l.154.12c-.068.5-.12,1.147-.154,1.986a2.1,2.1,0,0,0,.462.034,5.088,5.088,0,0,0,.925-.068l.051.034-.051.188c-.051.188-.086.36-.12.531-.394-.034-.685-.034-.873-.034a3.3,3.3,0,0,0-.411.017v.908a9.073,9.073,0,0,0,.1,1.952.466.466,0,0,0,.479.24,1.213,1.213,0,0,0,.24-.017,2.127,2.127,0,0,0,.274-.068l.086.188c-.206.223-.411.462-.6.7-.12.017-.24.034-.342.051a1.649,1.649,0,0,1-.291,0,1.492,1.492,0,0,1-.719-.154.983.983,0,0,1-.411-.377,1.494,1.494,0,0,1-.137-.7c0-.171,0-.6.034-1.284,0-.616.017-1.1.017-1.438h-.257a3.739,3.739,0,0,0-.411.017v-.274Z" transform="translate(-5.217 -31.867)" fill="#bb9532"/>
        <path id="Path_32309" data-name="Path 32309" d="M130.593,35.15v-.873a5.036,5.036,0,0,0-.034-.942c0-.069-.051-.1-.1-.137a4.958,4.958,0,0,0-.685-.051v-.36a6.964,6.964,0,0,0,2.038-.5l.137.12c-.034.548-.051,1.062-.051,1.558l-.034,3.99a8.966,8.966,0,0,0,.034,1.216.232.232,0,0,0,.1.188,2.24,2.24,0,0,0,.616.1v.411c-.411-.017-.822-.034-1.216-.034a6.066,6.066,0,0,0-.8.034l-.086-.068c.034-.342.068-.616.086-.822-.223.171-.6.462-1.1.89a1.624,1.624,0,0,1-.548.1,1.779,1.779,0,0,1-1.4-.634,2.427,2.427,0,0,1-.565-1.678,3.1,3.1,0,0,1,.12-.925,1.734,1.734,0,0,1,.274-.616,2.609,2.609,0,0,1,.616-.531,7.43,7.43,0,0,1,.925-.565,1.9,1.9,0,0,1,.634-.12,2.613,2.613,0,0,1,.514.051,2.13,2.13,0,0,1,.531.171Zm0,1.1a1.727,1.727,0,0,0-.548-.514,1.314,1.314,0,0,0-.685-.171.939.939,0,0,0-.8.377,2.145,2.145,0,0,0-.274,1.25,2.281,2.281,0,0,0,.342,1.353,1.056,1.056,0,0,0,.873.445,1.18,1.18,0,0,0,.668-.205.884.884,0,0,0,.36-.377,8.428,8.428,0,0,0,.051-1.319v-.856Z" transform="translate(-3.344 -32.273)" fill="#bb9532"/>
      </g>
      <path id="Path_32310" data-name="Path 32310" d="M190.128,23.2V21.83a28.314,28.314,0,0,0,6.028-1.267l2.123-.753c.257,0,.377.171.377.479l-.051.479c-.034.274-.1,1.438-.188,3.51q-.283,6.319-.291,10.531l.051,6.182q0,6.37-1.113,9.418a10.182,10.182,0,0,1-3.271,4.743,7.158,7.158,0,0,1-4.384,1.678h-.753l-.514-1.7a6.977,6.977,0,0,0,1.233.154,3.28,3.28,0,0,0,1.9-.531,5.443,5.443,0,0,0,1.764-2.551c.428-1.13.7-3.7.822-7.689.12-3.973.188-8.254.188-12.809q0-7.192-.257-7.86t-1.952-.668h-1.712Zm5.908-13.956a2.559,2.559,0,0,1,1.9.788,2.6,2.6,0,0,1,.788,1.918,2.533,2.533,0,0,1-.788,1.9,2.559,2.559,0,0,1-1.9.788,2.6,2.6,0,0,1-1.918-.788,2.559,2.559,0,0,1-.788-1.9,2.69,2.69,0,0,1,2.706-2.706ZM181.72,30.221q-6.678,1.438-8.459,2.706a4.438,4.438,0,0,0-1.8,3.9,3.914,3.914,0,0,0,1.027,2.843,3.5,3.5,0,0,0,2.654,1.062,6.528,6.528,0,0,0,3.442-1.01,11.631,11.631,0,0,0,3.134-3l-.051-5.326Zm-12.62-3.8V23.148l2.62-1.49a14.245,14.245,0,0,1,3.1-1.37,10.182,10.182,0,0,1,2.843-.377A8.817,8.817,0,0,1,183,21.4a5.868,5.868,0,0,1,2.432,3.784,79.784,79.784,0,0,1,.36,8.562,51.44,51.44,0,0,0,.291,7.124c.154.445.565.668,1.2.668h1.867v1.575c-1.832-.1-3.1-.154-3.819-.154-.908,0-2.089.051-3.6.154V40.992c.017-.685,0-1.37,0-2.072L176.771,42.7a4.31,4.31,0,0,1-1.319.7,6.16,6.16,0,0,1-1.8.205,6.7,6.7,0,0,1-4.726-1.524,5.291,5.291,0,0,1-1.627-4.093,7.638,7.638,0,0,1,1.164-4.247,6.9,6.9,0,0,1,3.322-2.671,63.5,63.5,0,0,1,9.966-2.26,7.025,7.025,0,0,0-1.336-4.538,5.8,5.8,0,0,0-4.658-1.884,7.923,7.923,0,0,0-2.158.274,6.607,6.607,0,0,0-1.867.856c-.462,1.147-.89,2.243-1.267,3.288l-1.319-.36ZM151.787,25.8q2.363,3.365,5.822,7.86l4.606,5.959a8.315,8.315,0,0,0,1.627,1.747,1.893,1.893,0,0,0,.839.205h.616V43.1c-1.319-.1-2.483-.154-3.476-.154a28.229,28.229,0,0,0-2.877.154l-8.494-11.439q-2.389-3.159-5.086-6.182l.24-.822c.942.086,1.627.12,2.072.12a9.05,9.05,0,0,0,6.285-2.055,7.078,7.078,0,0,0,2.26-5.514,6.183,6.183,0,0,0-1.918-4.829,8.065,8.065,0,0,0-5.548-1.73,14.405,14.405,0,0,0-5.069.942c-.188,2.534-.291,5.257-.291,8.151V31.316c0,5.634.137,8.768.411,9.367.274.616,1.147.925,2.637.925h1.867v1.524c-2.654-.1-4.846-.154-6.593-.154-1.37,0-3.87.051-7.466.154V41.608h1.8c1.37,0,2.192-.308,2.432-.908.257-.6.377-3.75.377-9.435V19.758c0-4.949-.154-7.723-.445-8.305s-1.25-.89-2.877-.89h-1.3V9.038c2.98.1,5.24.154,6.815.154,1.062,0,2.586-.034,4.555-.12,2.312-.086,3.956-.12,4.966-.12a17.518,17.518,0,0,1,6.3.873,6.948,6.948,0,0,1,3.271,2.534,6.877,6.877,0,0,1,1.113,3.956,8.448,8.448,0,0,1-2.432,5.976,13.084,13.084,0,0,1-7.072,3.562Zm-38.838-1.3,3.613-3.219a4.414,4.414,0,0,1,1.353-.839,9.762,9.762,0,0,1,3.168-.531,8.9,8.9,0,0,1,4.435,1.045,6.329,6.329,0,0,1,2.688,2.723,12.469,12.469,0,0,1,.8,5.223l-.1,7.552c0,2.62.12,4.11.342,4.5a1.88,1.88,0,0,0,1.764.771h1.73V43.1c-1.712-.1-3.185-.154-4.435-.154s-2.517.051-3.921.154c.291-3.117.445-7.312.445-12.62a12.8,12.8,0,0,0-.565-4.538,4.674,4.674,0,0,0-1.884-2.158,5.911,5.911,0,0,0-3.185-.8,6.562,6.562,0,0,0-3.921,1.164,4.869,4.869,0,0,0-2,2.6,28.511,28.511,0,0,0-.24,4.88c0,2.928.017,5.634.068,8.151a2.106,2.106,0,0,0,.342,1.421,2.921,2.921,0,0,0,2,.548h1.712v1.37c-2.723-.1-4.88-.154-6.507-.154-1.712,0-3.647.051-5.822.154v-1.37h1.73c1.2,0,1.884-.274,2.089-.822s.308-3.87.308-9.932c0-2.723-.034-4.863-.1-6.4a1.5,1.5,0,0,0-.377-1.062,3.667,3.667,0,0,0-1.9-.291h-1.73v-1.37a30.946,30.946,0,0,0,3.7-.651,27.065,27.065,0,0,0,3.682-1.267.969.969,0,0,1,.411-.1c.257,0,.377.188.377.548v.925l-.069,3.236ZM95.756,30.221q-6.678,1.438-8.459,2.706a4.438,4.438,0,0,0-1.8,3.9,3.914,3.914,0,0,0,1.027,2.843,3.5,3.5,0,0,0,2.654,1.062,6.528,6.528,0,0,0,3.442-1.01,11.631,11.631,0,0,0,3.134-3L95.705,31.4Zm-12.62-3.8V23.148l2.62-1.49a14.245,14.245,0,0,1,3.1-1.37,10.182,10.182,0,0,1,2.843-.377,8.817,8.817,0,0,1,5.343,1.49,5.868,5.868,0,0,1,2.432,3.784,79.789,79.789,0,0,1,.36,8.562,51.43,51.43,0,0,0,.291,7.124c.154.445.565.668,1.2.668h1.867v1.575c-1.832-.1-3.1-.154-3.819-.154-.908,0-2.089.051-3.6.154V40.992c.017-.685,0-1.37,0-2.072L90.808,42.7a4.311,4.311,0,0,1-1.319.7,6.16,6.16,0,0,1-1.8.205,6.7,6.7,0,0,1-4.726-1.524,5.291,5.291,0,0,1-1.627-4.093A7.638,7.638,0,0,1,82.5,33.748a6.9,6.9,0,0,1,3.322-2.671,63.5,63.5,0,0,1,9.966-2.26,7.024,7.024,0,0,0-1.336-4.538A5.8,5.8,0,0,0,89.8,22.395a7.923,7.923,0,0,0-2.158.274,6.607,6.607,0,0,0-1.867.856c-.462,1.147-.89,2.243-1.267,3.288l-1.319-.36ZM76.954,10.6a26.8,26.8,0,0,0-.736,6.61H74.54V15.288a4.577,4.577,0,0,0-.5-2.534,6.146,6.146,0,0,0-2.62-1.421,13.457,13.457,0,0,0-4.469-.753,8.82,8.82,0,0,0-6.028,1.935A6.339,6.339,0,0,0,58.734,17.5a5.933,5.933,0,0,0,.908,3.3,5.04,5.04,0,0,0,2.432,1.986,28.1,28.1,0,0,0,6.456,1.079,24.4,24.4,0,0,1,6.678,1.284A6.308,6.308,0,0,1,78,27.686a7.885,7.885,0,0,1,1.045,4.144,10.6,10.6,0,0,1-4.024,8.288q-4.033,3.468-10.737,3.476a23.956,23.956,0,0,1-4.641-.462,27.67,27.67,0,0,1-4.709-1.387,51.757,51.757,0,0,0,.394-7.381h1.627v1.2a10.169,10.169,0,0,0,.24,2.877,3.385,3.385,0,0,0,1.13,1.182,10.038,10.038,0,0,0,3.151,1.421,15.219,15.219,0,0,0,3.939.5c3.014,0,5.36-.719,7-2.141a6.833,6.833,0,0,0,2.466-5.411,5.935,5.935,0,0,0-.839-3.254A5.136,5.136,0,0,0,71.7,28.748a20.6,20.6,0,0,0-5.582-.976c-3.613-.291-6.062-.719-7.363-1.3A6.531,6.531,0,0,1,55.7,23.748a8.887,8.887,0,0,1-1.113-4.624,9.767,9.767,0,0,1,3.373-7.654q3.391-2.98,9.367-2.98A22.985,22.985,0,0,1,72.142,9a25.762,25.762,0,0,1,4.846,1.575Z" transform="translate(-54.59 -8.49)" fill="#bb9532"/>
    </g>
  </g>
</svg>
