<svg xmlns="http://www.w3.org/2000/svg" width="60" height="60" viewBox="0 0 60 60">
  <g id="Group_10696" data-name="Group 10696" transform="translate(-6616 -4071)">
    <g id="Ellipse_15" data-name="Ellipse 15" transform="translate(6616 4071)" fill="none" stroke="#fff" stroke-width="2">
      <circle cx="30" cy="30" r="30" stroke="none"/>
      <circle cx="30" cy="30" r="29" fill="none"/>
    </g>
    <path fill="#fff" id="Path_44668" data-name="Path 44668" d="M16,7.391a.917.917,0,0,1,.957-.522c8.787.005,8.145,0,16.931,0h.436c-.118-.128-.191-.212-.27-.291q-2.65-2.654-5.3-5.308a.71.71,0,0,1-.14-1.017.657.657,0,0,1,.916-.122,2.9,2.9,0,0,1,.305.275Q33.08,3.652,36.325,6.9c.511.511.511.826,0,1.341q-3.3,3.3-6.595,6.594c-.414.414-.906.4-1.168-.029a.627.627,0,0,1,.012-.718,2.293,2.293,0,0,1,.289-.332q2.588-2.592,5.181-5.179a2.364,2.364,0,0,1,.281-.21l-.049-.1h-.332c-8.816,0-8.2,0-17.019,0A.881.881,0,0,1,16,7.744Z" transform="translate(6620 4093)"/>
  </g>
</svg>
