<svg xmlns="http://www.w3.org/2000/svg" width="26.337" height="18.436" viewBox="0 0 26.337 18.436">
  <g id="Group_156" data-name="Group 156" transform="translate(0 0)">
    <g id="Group_155" data-name="Group 155">
      <g id="Group_154" data-name="Group 154">
        <path id="Path_337" data-name="Path 337" d="M237.121,736.379a5.734,5.734,0,0,0-5.733-5.733H216.517a5.734,5.734,0,0,0-5.733,5.733v6.969a5.734,5.734,0,0,0,5.733,5.733h14.871a5.733,5.733,0,0,0,5.733-5.733Zm-9.382,3.836-5.931,3.252c-.258.14-.49-.047-.49-.34v-6.677c0-.3.239-.483.5-.336l5.971,3.424A.388.388,0,0,1,227.74,740.215Z" transform="translate(-210.784 -730.646)" fill="#BB9532"/>
      </g>
    </g>
  </g>
</svg>
